<svg xmlns="http://www.w3.org/2000/svg" xmlns:xlink="http://www.w3.org/1999/xlink" width="1080" zoomAndPan="magnify" viewBox="0 0 810 809.999993" height="1080" preserveAspectRatio="xMidYMid meet" version="1.0"><path fill="#0cc0df" d="M 413.890625 238.4375 C 412.113281 238.4375 409.890625 238.4375 408.113281 238.4375 C 363.65625 238.4375 321.867188 255.765625 290.746094 286.871094 C 259.183594 318.421875 242.289062 359.746094 242.289062 404.183594 C 242.289062 448.621094 259.625 490.390625 290.746094 521.496094 C 301.859375 532.605469 314.308594 541.933594 327.644531 549.042969 C 174.269531 502.386719 128.035156 397.074219 128.035156 397.074219 C 128.035156 397.074219 256.960938 198.890625 546.371094 228.660156 L 562.375 184.226562 C 562.375 184.226562 561.933594 184.226562 561.933594 184.226562 L 596.609375 90.019531 L 547.261719 182.003906 C 242.734375 141.566406 0 398.851562 0 398.851562 C 0 398.851562 169.824219 579.261719 399.21875 570.375 C 402.332031 570.375 405 570.820312 408.113281 570.820312 C 452.570312 570.820312 494.359375 553.488281 525.476562 522.382812 C 557.042969 490.832031 573.933594 449.507812 573.933594 405.070312 C 573.933594 360.636719 556.597656 318.867188 525.476562 287.761719 C 516.585938 278.875 507.25 271.320312 497.023438 265.097656 C 638.398438 314.421875 681.519531 412.625 681.519531 412.625 C 681.519531 412.625 552.597656 610.8125 263.183594 581.039062 L 247.179688 625.476562 C 247.179688 625.476562 247.625 625.476562 247.625 625.476562 L 212.949219 719.679688 L 262.292969 626.808594 C 567.265625 667.246094 810 409.960938 810 409.960938 C 810 409.960938 641.507812 231.328125 413.890625 238.4375 Z M 408.554688 517.941406 C 345.871094 517.941406 294.746094 466.839844 294.746094 404.183594 C 294.746094 341.527344 345.871094 290.425781 408.554688 290.425781 C 471.242188 290.425781 522.367188 341.527344 522.367188 404.183594 C 522.367188 466.839844 471.242188 517.941406 408.554688 517.941406 Z M 408.554688 517.941406 " fill-opacity="1" fill-rule="nonzero"/><path fill="#0cc0df" d="M 447.679688 404.183594 C 447.679688 405.582031 447.609375 406.972656 447.472656 408.363281 C 447.335938 409.753906 447.132812 411.136719 446.859375 412.503906 C 446.585938 413.875 446.246094 415.230469 445.839844 416.566406 C 445.433594 417.902344 444.964844 419.21875 444.429688 420.507812 C 443.894531 421.800781 443.296875 423.058594 442.640625 424.292969 C 441.980469 425.523438 441.261719 426.722656 440.484375 427.882812 C 439.710938 429.042969 438.878906 430.164062 437.992188 431.246094 C 437.105469 432.324219 436.167969 433.359375 435.179688 434.347656 C 434.191406 435.335938 433.15625 436.273438 432.074219 437.160156 C 430.996094 438.046875 429.875 438.875 428.710938 439.652344 C 427.546875 440.429688 426.351562 441.144531 425.117188 441.804688 C 423.886719 442.464844 422.625 443.058594 421.332031 443.59375 C 420.039062 444.128906 418.726562 444.597656 417.390625 445.003906 C 416.050781 445.410156 414.695312 445.75 413.324219 446.023438 C 411.957031 446.296875 410.574219 446.5 409.183594 446.636719 C 407.792969 446.773438 406.398438 446.84375 405 446.84375 C 403.601562 446.84375 402.207031 446.773438 400.816406 446.636719 C 399.425781 446.5 398.042969 446.296875 396.675781 446.023438 C 395.304688 445.75 393.949219 445.410156 392.609375 445.003906 C 391.273438 444.597656 389.960938 444.128906 388.667969 443.59375 C 387.375 443.058594 386.113281 442.464844 384.882812 441.804688 C 383.648438 441.144531 382.453125 440.429688 381.289062 439.652344 C 380.125 438.875 379.003906 438.046875 377.925781 437.160156 C 376.84375 436.273438 375.808594 435.335938 374.820312 434.347656 C 373.832031 433.359375 372.894531 432.324219 372.007812 431.246094 C 371.121094 430.164062 370.289062 429.042969 369.515625 427.882812 C 368.738281 426.722656 368.019531 425.523438 367.359375 424.292969 C 366.703125 423.058594 366.105469 421.800781 365.570312 420.507812 C 365.035156 419.21875 364.566406 417.902344 364.160156 416.566406 C 363.753906 415.230469 363.414062 413.875 363.140625 412.503906 C 362.867188 411.136719 362.664062 409.753906 362.527344 408.363281 C 362.390625 406.972656 362.320312 405.582031 362.320312 404.183594 C 362.320312 402.785156 362.390625 401.394531 362.527344 400.003906 C 362.664062 398.613281 362.867188 397.230469 363.140625 395.859375 C 363.414062 394.492188 363.753906 393.136719 364.160156 391.800781 C 364.566406 390.464844 365.035156 389.148438 365.570312 387.859375 C 366.105469 386.566406 366.703125 385.304688 367.359375 384.074219 C 368.019531 382.84375 368.738281 381.644531 369.515625 380.484375 C 370.289062 379.320312 371.121094 378.199219 372.007812 377.121094 C 372.894531 376.042969 373.832031 375.007812 374.820312 374.019531 C 375.808594 373.03125 376.84375 372.09375 377.925781 371.207031 C 379.003906 370.320312 380.128906 369.492188 381.289062 368.714844 C 382.453125 367.9375 383.648438 367.21875 384.882812 366.5625 C 386.113281 365.902344 387.375 365.308594 388.667969 364.773438 C 389.960938 364.238281 391.273438 363.765625 392.609375 363.363281 C 393.949219 362.957031 395.304688 362.617188 396.675781 362.34375 C 398.042969 362.070312 399.425781 361.867188 400.816406 361.730469 C 402.207031 361.59375 403.601562 361.523438 405 361.523438 C 406.398438 361.523438 407.792969 361.59375 409.183594 361.730469 C 410.574219 361.867188 411.957031 362.070312 413.324219 362.34375 C 414.695312 362.617188 416.050781 362.957031 417.390625 363.363281 C 418.726562 363.765625 420.039062 364.238281 421.332031 364.773438 C 422.625 365.308594 423.886719 365.902344 425.117188 366.5625 C 426.351562 367.21875 427.546875 367.9375 428.710938 368.714844 C 429.875 369.492188 430.996094 370.320312 432.074219 371.207031 C 433.15625 372.09375 434.191406 373.03125 435.179688 374.019531 C 436.167969 375.007812 437.105469 376.042969 437.992188 377.121094 C 438.878906 378.199219 439.710938 379.320312 440.484375 380.484375 C 441.261719 381.644531 441.980469 382.84375 442.640625 384.074219 C 443.296875 385.304688 443.894531 386.566406 444.429688 387.859375 C 444.964844 389.148438 445.433594 390.464844 445.839844 391.800781 C 446.246094 393.136719 446.585938 394.492188 446.859375 395.859375 C 447.132812 397.230469 447.335938 398.613281 447.472656 400.003906 C 447.609375 401.394531 447.679688 402.785156 447.679688 404.183594 Z M 447.679688 404.183594 " fill-opacity="1" fill-rule="nonzero"/></svg>