<svg xmlns="http://www.w3.org/2000/svg" xmlns:xlink="http://www.w3.org/1999/xlink" width="1080" zoomAndPan="magnify" viewBox="0 0 810 809.999993" height="1080" preserveAspectRatio="xMidYMid meet" version="1.0"><defs><g/></defs><path fill="#0cc0df" d="M 413.890625 149.335938 C 412.113281 149.335938 409.890625 149.335938 408.113281 149.335938 C 363.65625 149.335938 321.867188 166.667969 290.746094 197.773438 C 259.183594 229.320312 242.289062 270.648438 242.289062 315.082031 C 242.289062 359.519531 259.625 401.289062 290.746094 432.394531 C 301.859375 443.503906 314.308594 452.835938 327.644531 459.945312 C 174.269531 413.285156 128.035156 307.972656 128.035156 307.972656 C 128.035156 307.972656 256.960938 109.789062 546.371094 139.5625 L 562.375 95.125 C 562.375 95.125 561.933594 95.125 561.933594 95.125 L 596.609375 0.921875 L 547.261719 92.902344 C 242.734375 52.464844 0 309.75 0 309.75 C 0 309.75 169.824219 490.160156 399.21875 481.273438 C 402.332031 481.273438 405 481.71875 408.113281 481.71875 C 452.570312 481.71875 494.359375 464.386719 525.476562 433.285156 C 557.042969 401.734375 573.933594 360.40625 573.933594 315.972656 C 573.933594 271.535156 556.597656 229.765625 525.476562 198.660156 C 516.585938 189.773438 507.25 182.21875 497.023438 176 C 638.398438 225.324219 681.519531 323.527344 681.519531 323.527344 C 681.519531 323.527344 552.597656 521.710938 263.183594 491.9375 L 247.179688 536.375 C 247.179688 536.375 247.625 536.375 247.625 536.375 L 212.949219 630.578125 L 262.292969 537.707031 C 567.265625 578.144531 810 320.859375 810 320.859375 C 810 320.859375 641.507812 142.226562 413.890625 149.335938 Z M 408.554688 428.839844 C 345.871094 428.839844 294.746094 377.738281 294.746094 315.082031 C 294.746094 252.429688 345.871094 201.328125 408.554688 201.328125 C 471.242188 201.328125 522.367188 252.429688 522.367188 315.082031 C 522.367188 377.738281 471.242188 428.839844 408.554688 428.839844 Z M 408.554688 428.839844 " fill-opacity="1" fill-rule="nonzero"/><path fill="#0cc0df" d="M 447.679688 315.082031 C 447.679688 316.480469 447.609375 317.875 447.472656 319.265625 C 447.335938 320.65625 447.132812 322.035156 446.859375 323.40625 C 446.585938 324.777344 446.246094 326.128906 445.839844 327.464844 C 445.433594 328.804688 444.964844 330.117188 444.429688 331.40625 C 443.894531 332.699219 443.296875 333.960938 442.640625 335.191406 C 441.980469 336.425781 441.261719 337.621094 440.484375 338.785156 C 439.710938 339.945312 438.878906 341.066406 437.992188 342.144531 C 437.105469 343.226562 436.167969 344.257812 435.179688 345.246094 C 434.191406 346.234375 433.15625 347.171875 432.074219 348.058594 C 430.996094 348.945312 429.875 349.777344 428.710938 350.550781 C 427.546875 351.328125 426.351562 352.046875 425.117188 352.703125 C 423.886719 353.363281 422.625 353.960938 421.332031 354.496094 C 420.039062 355.03125 418.726562 355.5 417.390625 355.90625 C 416.050781 356.3125 414.695312 356.648438 413.324219 356.921875 C 411.957031 357.195312 410.574219 357.398438 409.183594 357.535156 C 407.792969 357.671875 406.398438 357.742188 405 357.742188 C 403.601562 357.742188 402.207031 357.671875 400.816406 357.535156 C 399.425781 357.398438 398.042969 357.195312 396.675781 356.921875 C 395.304688 356.648438 393.949219 356.3125 392.609375 355.90625 C 391.273438 355.5 389.960938 355.03125 388.667969 354.496094 C 387.375 353.960938 386.113281 353.363281 384.882812 352.703125 C 383.648438 352.046875 382.453125 351.328125 381.289062 350.550781 C 380.125 349.777344 379.003906 348.945312 377.925781 348.058594 C 376.84375 347.171875 375.808594 346.234375 374.820312 345.246094 C 373.832031 344.257812 372.894531 343.226562 372.007812 342.144531 C 371.121094 341.066406 370.289062 339.945312 369.515625 338.785156 C 368.738281 337.621094 368.019531 336.425781 367.359375 335.191406 C 366.703125 333.960938 366.105469 332.699219 365.570312 331.40625 C 365.035156 330.117188 364.566406 328.804688 364.160156 327.464844 C 363.753906 326.128906 363.414062 324.777344 363.140625 323.40625 C 362.867188 322.035156 362.664062 320.65625 362.527344 319.265625 C 362.390625 317.875 362.320312 316.480469 362.320312 315.082031 C 362.320312 313.6875 362.390625 312.292969 362.527344 310.902344 C 362.664062 309.511719 362.867188 308.132812 363.140625 306.761719 C 363.414062 305.390625 363.753906 304.039062 364.160156 302.699219 C 364.566406 301.363281 365.035156 300.050781 365.570312 298.757812 C 366.105469 297.46875 366.703125 296.207031 367.359375 294.972656 C 368.019531 293.742188 368.738281 292.546875 369.515625 291.382812 C 370.289062 290.222656 371.121094 289.101562 372.007812 288.019531 C 372.894531 286.941406 373.832031 285.90625 374.820312 284.917969 C 375.808594 283.929688 376.84375 282.996094 377.925781 282.109375 C 379.003906 281.222656 380.128906 280.390625 381.289062 279.613281 C 382.453125 278.839844 383.648438 278.121094 384.882812 277.460938 C 386.113281 276.804688 387.375 276.207031 388.667969 275.671875 C 389.960938 275.136719 391.273438 274.667969 392.609375 274.261719 C 393.949219 273.855469 395.304688 273.515625 396.675781 273.246094 C 398.042969 272.972656 399.425781 272.765625 400.816406 272.628906 C 402.207031 272.492188 403.601562 272.425781 405 272.425781 C 406.398438 272.425781 407.792969 272.492188 409.183594 272.628906 C 410.574219 272.765625 411.957031 272.972656 413.324219 273.246094 C 414.695312 273.515625 416.050781 273.855469 417.390625 274.261719 C 418.726562 274.667969 420.039062 275.136719 421.332031 275.671875 C 422.625 276.207031 423.886719 276.804688 425.117188 277.460938 C 426.351562 278.121094 427.546875 278.839844 428.710938 279.613281 C 429.875 280.390625 430.996094 281.222656 432.074219 282.109375 C 433.15625 282.996094 434.191406 283.929688 435.179688 284.917969 C 436.167969 285.90625 437.105469 286.941406 437.992188 288.019531 C 438.878906 289.101562 439.710938 290.222656 440.484375 291.382812 C 441.261719 292.546875 441.980469 293.742188 442.640625 294.972656 C 443.296875 296.207031 443.894531 297.46875 444.429688 298.757812 C 444.964844 300.050781 445.433594 301.363281 445.839844 302.699219 C 446.246094 304.039062 446.585938 305.390625 446.859375 306.761719 C 447.132812 308.132812 447.335938 309.511719 447.472656 310.902344 C 447.609375 312.292969 447.679688 313.6875 447.679688 315.082031 Z M 447.679688 315.082031 " fill-opacity="1" fill-rule="nonzero"/><g fill="#ffde59" fill-opacity="1"><g transform="translate(165.391642, 767.301201)"><g><path d="M 16.140625 -134.5625 L 118.0625 -134.5625 C 121.976562 -134.5625 124.847656 -134.101562 126.671875 -133.1875 C 128.503906 -132.269531 129.726562 -130.832031 130.34375 -128.875 C 130.957031 -126.925781 131.265625 -124.359375 131.265625 -121.171875 C 131.265625 -117.992188 130.957031 -115.457031 130.34375 -113.5625 C 129.726562 -111.675781 128.691406 -110.363281 127.234375 -109.625 C 125.035156 -108.53125 121.914062 -107.984375 117.875 -107.984375 L 82.859375 -107.984375 L 82.859375 -15.765625 C 82.859375 -12.953125 82.765625 -10.875 82.578125 -9.53125 C 82.398438 -8.1875 81.851562 -6.628906 80.9375 -4.859375 C 80.019531 -3.085938 78.398438 -1.832031 76.078125 -1.09375 C 73.753906 -0.363281 70.695312 0 66.90625 0 C 63.125 0 60.101562 -0.363281 57.84375 -1.09375 C 55.582031 -1.832031 53.992188 -3.085938 53.078125 -4.859375 C 52.160156 -6.628906 51.609375 -8.21875 51.421875 -9.625 C 51.242188 -11.03125 51.15625 -13.140625 51.15625 -15.953125 L 51.15625 -107.984375 L 15.953125 -107.984375 C 12.035156 -107.984375 9.160156 -108.441406 7.328125 -109.359375 C 5.492188 -110.273438 4.269531 -111.707031 3.65625 -113.65625 C 3.050781 -115.613281 2.75 -118.179688 2.75 -121.359375 C 2.75 -124.535156 3.050781 -127.070312 3.65625 -128.96875 C 4.269531 -130.863281 5.3125 -132.175781 6.78125 -132.90625 C 8.976562 -134.007812 12.097656 -134.5625 16.140625 -134.5625 Z M 16.140625 -134.5625 "/></g></g></g><g fill="#ffde59" fill-opacity="1"><g transform="translate(302.149883, 767.301201)"><g/></g></g><g fill="#ffde59" fill-opacity="1"><g transform="translate(351.280191, 767.301201)"><g><path d="M 39.78125 -32.453125 L 96.25 -32.453125 C 99.0625 -32.453125 101.171875 -32.359375 102.578125 -32.171875 C 103.984375 -31.992188 105.601562 -31.414062 107.4375 -30.4375 C 110.726562 -28.71875 112.375 -23.953125 112.375 -16.140625 C 112.375 -7.578125 110.113281 -2.5625 105.59375 -1.09375 C 103.519531 -0.363281 100.34375 0 96.0625 0 L 23.46875 0 C 14.914062 0 9.90625 -2.320312 8.4375 -6.96875 C 7.695312 -8.925781 7.328125 -12.039062 7.328125 -16.3125 L 7.328125 -118.25 C 7.328125 -124.476562 8.488281 -128.722656 10.8125 -130.984375 C 13.132812 -133.242188 17.535156 -134.375 24.015625 -134.375 L 96.25 -134.375 C 99.0625 -134.375 101.171875 -134.28125 102.578125 -134.09375 C 103.984375 -133.914062 105.601562 -133.335938 107.4375 -132.359375 C 110.726562 -130.648438 112.375 -125.882812 112.375 -118.0625 C 112.375 -109.507812 110.113281 -104.5 105.59375 -103.03125 C 103.519531 -102.300781 100.34375 -101.9375 96.0625 -101.9375 L 39.78125 -101.9375 L 39.78125 -83.421875 L 76.078125 -83.421875 C 78.890625 -83.421875 81 -83.328125 82.40625 -83.140625 C 83.8125 -82.953125 85.429688 -82.367188 87.265625 -81.390625 C 90.566406 -79.679688 92.21875 -74.914062 92.21875 -67.09375 C 92.21875 -58.539062 89.894531 -53.53125 85.25 -52.0625 C 83.164062 -51.332031 79.988281 -50.96875 75.71875 -50.96875 L 39.78125 -50.96875 Z M 39.78125 -32.453125 "/></g></g></g><g fill="#ffde59" fill-opacity="1"><g transform="translate(470.989472, 767.301201)"><g/></g></g><g fill="#ffde59" fill-opacity="1"><g transform="translate(520.119766, 767.301201)"><g><path d="M 91.296875 -35.203125 L 94.59375 -37.578125 C 98.75 -40.023438 101.679688 -41.25 103.390625 -41.25 C 107.179688 -41.25 111.28125 -37.828125 115.6875 -30.984375 C 118.375 -26.703125 119.71875 -23.273438 119.71875 -20.703125 C 119.71875 -18.140625 118.890625 -16.003906 117.234375 -14.296875 C 115.585938 -12.585938 113.660156 -11.0625 111.453125 -9.71875 C 109.253906 -8.375 107.144531 -7.085938 105.125 -5.859375 C 103.113281 -4.640625 98.992188 -3.050781 92.765625 -1.09375 C 86.535156 0.851562 80.515625 1.828125 74.703125 1.828125 C 68.898438 1.828125 63.035156 1.066406 57.109375 -0.453125 C 51.179688 -1.984375 45.066406 -4.550781 38.765625 -8.15625 C 32.472656 -11.757812 26.820312 -16.160156 21.8125 -21.359375 C 16.800781 -26.554688 12.675781 -33.21875 9.4375 -41.34375 C 6.195312 -49.46875 4.578125 -58.296875 4.578125 -67.828125 C 4.578125 -77.359375 6.164062 -86.003906 9.34375 -93.765625 C 12.519531 -101.523438 16.582031 -107.941406 21.53125 -113.015625 C 26.488281 -118.085938 32.144531 -122.335938 38.5 -125.765625 C 50.476562 -132.359375 62.515625 -135.65625 74.609375 -135.65625 C 80.359375 -135.65625 86.195312 -134.769531 92.125 -133 C 98.050781 -131.226562 102.539062 -129.425781 105.59375 -127.59375 L 110 -125.03125 C 112.195312 -123.6875 113.90625 -122.585938 115.125 -121.734375 C 118.300781 -119.160156 119.890625 -116.253906 119.890625 -113.015625 C 119.890625 -109.773438 118.609375 -106.382812 116.046875 -102.84375 C 111.273438 -96.25 107 -92.953125 103.21875 -92.953125 C 101.007812 -92.953125 97.890625 -94.296875 93.859375 -96.984375 C 88.734375 -101.140625 81.890625 -103.21875 73.328125 -103.21875 C 65.390625 -103.21875 57.566406 -100.46875 49.859375 -94.96875 C 46.191406 -92.28125 43.132812 -88.488281 40.6875 -83.59375 C 38.25 -78.707031 37.03125 -73.175781 37.03125 -67 C 37.03125 -60.832031 38.25 -55.300781 40.6875 -50.40625 C 43.132812 -45.519531 46.253906 -41.671875 50.046875 -38.859375 C 57.503906 -33.484375 65.265625 -30.796875 73.328125 -30.796875 C 77.117188 -30.796875 80.691406 -31.285156 84.046875 -32.265625 C 87.410156 -33.242188 89.828125 -34.222656 91.296875 -35.203125 Z M 91.296875 -35.203125 "/></g></g></g></svg>